<svg width="256" height="256" viewBox="0 0 256 256" fill="none" xmlns="http://www.w3.org/2000/svg">
  <rect width="256" height="256" rx="32" fill="white"/>
  <path d="M40 182C74 164 104 168 128 186C152 168 182 164 216 182" stroke="#1E3A8A" stroke-width="16" stroke-linecap="round"/>
  <path d="M52 198C82 184 108 188 128 202C148 188 174 184 204 198" stroke="#3347A5" stroke-width="10" stroke-linecap="round"/>
  <path d="M128 74C139 92 148 107 152 122C142 115 134 108 128 98C122 108 114 115 104 122C108 107 117 92 128 74Z" fill="#23A8E0"/>
  <circle cx="128" cy="68" r="10" fill="#23A8E0"/>
  <path d="M92 112C102 126 108 136 110 148C101 143 94 138 88 131C82 138 75 143 66 148C68 136 74 126 84 112H92Z" fill="#DC2B3A"/>
  <circle cx="88" cy="104" r="8" fill="#DC2B3A"/>
  <path d="M164 112C174 126 180 136 182 148C173 143 166 138 160 131C154 138 147 143 138 148C140 136 146 126 156 112H164Z" fill="#F5B538"/>
  <circle cx="168" cy="104" r="8" fill="#F5B538"/>
  <path d="M78 70C84 60 94 56 104 56C96 66 90 72 82 76C79 75 77 73 78 70Z" fill="#7DB241"/>
  <path d="M178 70C172 60 162 56 152 56C160 66 166 72 174 76C177 75 179 73 178 70Z" fill="#7DB241"/>
  <path d="M66 126C69 118 76 112 84 110C79 118 75 122 69 126H66Z" fill="#7DB241"/>
  <path d="M190 126C187 118 180 112 172 110C177 118 181 122 187 126H190Z" fill="#7DB241"/>
</svg>
